<!DOCTYPE svg PUBLIC "-//W3C//DTD SVG 20010904//EN" "http://www.w3.org/TR/2001/REC-SVG-20010904/DTD/svg10.dtd">
<svg version="1.0" xmlns="http://www.w3.org/2000/svg" width="200px" height="200px" viewBox="0 0 2000 2000" preserveAspectRatio="xMidYMid meet">
<g id="layer1" fill="#000000" stroke="none">
 <path d="M870 1946 l0 -54 -47 -7 c-101 -15 -265 -88 -358 -158 -181 -138 -321 -358 -351 -552 l-6 -45 -54 0 -54 0 0 -130 0 -130 54 0 54 0 6 -45 c16 -104 87 -266 159 -360 139 -182 358 -321 552 -351 l45 -6 0 -54 0 -54 130 0 130 0 0 54 0 54 45 6 c194 30 414 170 552 351 70 93 143 257 158 358 l7 47 54 0 54 0 0 130 0 130 -53 0 -53 0 -13 63 c-68 332 -356 620 -688 688 l-63 13 0 53 0 53 -130 0 -130 0 0 -54z m26 -460 c35 -55 114 -72 167 -37 44 29 59 58 65 126 l5 63 51 -15 c208 -61 378 -231 439 -439 l15 -51 -63 -5 c-35 -3 -73 -13 -85 -21 -77 -54 -79 -163 -4 -212 15 -10 54 -20 90 -23 l62 -5 -15 -51 c-63 -214 -226 -376 -439 -439 l-51 -15 -5 63 c-3 35 -13 73 -21 85 -41 58 -117 76 -170 41 -44 -29 -59 -58 -65 -126 l-5 -63 -51 15 c-213 63 -376 225 -439 439 l-15 51 63 5 c35 3 73 13 85 21 58 41 76 117 41 170 -29 44 -58 59 -126 65 l-63 5 15 51 c63 212 219 370 433 437 l55 17 7 -63 c3 -35 14 -75 24 -89z"/>
 </g>

</svg>