<!DOCTYPE svg PUBLIC "-//W3C//DTD SVG 20010904//EN" "http://www.w3.org/TR/2001/REC-SVG-20010904/DTD/svg10.dtd">
<svg version="1.0" xmlns="http://www.w3.org/2000/svg" width="1204px" height="1452px" viewBox="0 0 12040 14520" preserveAspectRatio="xMidYMid meet">
<g id="layer1" fill="#999999" stroke="none">
 <path d="M8566 7522 c-3 -6 1 -15 8 -21 8 -7 17 -8 20 -3 3 6 -1 15 -8 21 -8 7 -17 8 -20 3z"/>
 <path d="M8618 7454 c-3 -3 10 -31 29 -62 126 -207 298 -628 367 -897 145 -572 135 -1219 -29 -1758 -196 -647 -585 -1201 -1125 -1605 -366 -273 -830 -477 -1289 -566 -235 -46 -370 -59 -641 -60 -216 -2 -255 -4 -255 -16 0 -12 14 -15 60 -15 33 -1 65 -4 70 -7 6 -3 80 -7 165 -7 733 -6 1443 241 2025 706 141 112 376 347 488 488 376 471 603 1006 684 1610 24 181 24 599 0 780 -65 489 -227 933 -483 1333 -55 84 -57 86 -66 76z"/>
 <path d="M4915 2661 c-7 -12 12 -24 25 -16 11 7 4 25 -10 25 -5 0 -11 -4 -15 -9z"/>
 <path d="M5005 2631 c-7 -12 12 -24 25 -16 11 7 4 25 -10 25 -5 0 -11 -4 -15 -9z"/>
 <path d="M5105 2601 c-7 -12 12 -24 25 -16 11 7 4 25 -10 25 -5 0 -11 -4 -15 -9z"/>
 <path d="M5305 2551 c-7 -12 12 -24 25 -16 11 7 4 25 -10 25 -5 0 -11 -4 -15 -9z"/>
 <path d="M5355 2541 c-7 -12 12 -24 25 -16 11 7 4 25 -10 25 -5 0 -11 -4 -15 -9z"/>
 <path d="M5405 2531 c-7 -12 12 -24 25 -16 11 7 4 25 -10 25 -5 0 -11 -4 -15 -9z"/>
 <path d="M5465 2521 c-7 -12 12 -24 25 -16 11 7 4 25 -10 25 -5 0 -11 -4 -15 -9z"/>
 <path d="M5535 2511 c-7 -12 12 -24 25 -16 11 7 4 25 -10 25 -5 0 -11 -4 -15 -9z"/>
 <path d="M5615 2500 c-8 -12 20 -24 35 -15 6 3 8 11 5 16 -8 12 -32 12 -40 -1z"/>
 </g>
<g id="layer2" fill="#a6a0a1" stroke="none">
 <path d="M7866 8232 c-3 -6 1 -15 8 -21 8 -7 17 -8 20 -3 3 6 -1 15 -8 21 -8 7 -17 8 -20 3z"/>
 <path d="M7906 8202 c-3 -6 1 -15 8 -21 8 -7 17 -8 20 -3 3 6 -1 15 -8 21 -8 7 -17 8 -20 3z"/>
 <path d="M8006 8122 c-3 -6 1 -15 8 -21 8 -7 17 -8 20 -3 3 6 -1 15 -8 21 -8 7 -17 8 -20 3z"/>
 <path d="M8076 8062 c-3 -5 3 -17 13 -26 11 -10 22 -13 25 -8 3 5 -3 17 -13 26 -11 10 -22 13 -25 8z"/>
 <path d="M8346 7792 c-3 -5 5 -19 18 -31 13 -13 26 -18 30 -13 3 5 -5 19 -18 31 -13 13 -26 18 -30 13z"/>
 <path d="M8406 7731 c-4 -6 4 -24 17 -40 90 -108 309 -488 392 -681 197 -458 278 -855 274 -1345 -3 -532 -98 -947 -318 -1392 -292 -588 -737 -1050 -1311 -1360 -900 -486 -2023 -496 -2965 -26 -27 14 -56 30 -64 36 -7 6 -20 12 -28 13 -8 2 -22 9 -31 17 -10 8 -82 54 -162 102 -80 48 -159 98 -177 111 -18 13 -34 20 -38 14 -13 -20 275 -221 473 -330 114 -63 344 -167 417 -189 22 -7 54 -19 72 -27 17 -8 40 -14 51 -14 12 0 23 -4 26 -9 4 -5 25 -12 49 -16 23 -4 47 -11 52 -15 10 -7 129 -38 176 -45 13 -2 35 -6 49 -9 14 -3 41 -8 60 -11 19 -3 46 -8 60 -10 69 -13 112 -17 190 -20 105 -5 137 -9 146 -18 4 -4 13 -2 20 4 7 6 83 12 181 14 845 17 1644 365 2233 971 620 638 932 1482 881 2379 -24 413 -89 705 -246 1105 -46 115 -170 373 -219 454 -20 32 -36 62 -36 65 0 4 -11 18 -25 31 -14 13 -25 28 -25 33 0 8 -48 71 -151 200 -11 14 -18 16 -23 8z"/>
 <path d="M3287 3974 c-9 -9 92 -156 103 -149 6 3 -13 40 -40 81 -53 78 -53 78 -63 68z"/>
 <path d="M3486 3692 c-3 -6 1 -15 8 -21 8 -7 17 -8 20 -3 3 6 -1 15 -8 21 -8 7 -17 8 -20 3z"/>
 <path d="M3526 3642 c-3 -5 3 -17 13 -26 11 -10 22 -13 25 -8 3 5 -3 17 -13 26 -11 10 -22 13 -25 8z"/>
 <path d="M3586 3572 c-3 -5 3 -17 13 -26 11 -10 22 -13 25 -8 3 5 -3 17 -13 26 -11 10 -22 13 -25 8z"/>
 <path d="M3866 3292 c-3 -5 3 -17 13 -26 11 -10 22 -13 25 -8 3 5 -3 17 -13 26 -11 10 -22 13 -25 8z"/>
 <path d="M3936 3232 c-3 -5 3 -17 13 -26 11 -10 22 -13 25 -8 3 5 -3 17 -13 26 -11 10 -22 13 -25 8z"/>
 </g>
<g id="layer3" fill="#b2b2b2" stroke="none">
 <path d="M7576 8422 c-3 -6 1 -15 8 -21 8 -7 17 -8 20 -3 3 6 -1 15 -8 21 -8 7 -17 8 -20 3z"/>
 <path d="M7626 8392 c-3 -6 1 -15 8 -21 8 -7 17 -8 20 -3 3 6 -1 15 -8 21 -8 7 -17 8 -20 3z"/>
 <path d="M7686 8351 c-3 -4 26 -29 64 -54 38 -26 72 -42 75 -37 3 5 -20 26 -52 48 -79 53 -81 54 -87 43z"/>
 <path d="M7836 8252 c-3 -6 1 -15 8 -21 8 -7 17 -8 20 -3 3 6 -1 15 -8 21 -8 7 -17 8 -20 3z"/>
 <path d="M7956 8162 c-3 -5 32 -45 77 -89 219 -212 347 -364 495 -586 286 -431 458 -899 518 -1402 20 -169 23 -536 5 -680 -6 -55 -14 -118 -16 -140 -3 -22 -10 -62 -16 -90 -5 -27 -12 -66 -15 -85 -12 -78 -65 -283 -105 -400 -60 -180 -91 -255 -179 -435 -140 -284 -326 -542 -554 -770 -492 -491 -1086 -783 -1796 -882 -179 -25 -594 -25 -780 0 -282 38 -595 120 -812 211 -21 9 -40 16 -43 17 -8 0 -297 149 -375 193 -273 152 -602 421 -809 661 -108 125 -224 271 -280 353 -24 34 -47 59 -52 56 -11 -7 -19 5 117 -199 107 -161 134 -198 194 -265 14 -15 45 -52 70 -82 39 -47 188 -198 291 -294 19 -19 40 -34 47 -34 6 0 16 -9 22 -19 5 -11 21 -26 34 -33 54 -29 212 -132 233 -151 13 -11 23 -16 23 -11 0 5 5 1 11 -9 6 -9 14 -15 18 -12 5 2 24 -6 42 -20 19 -13 77 -46 129 -73 447 -231 912 -353 1410 -369 1109 -35 2119 486 2739 1412 134 200 273 487 349 718 118 358 159 613 161 1012 4 488 -78 891 -272 1340 -94 220 -229 452 -417 720 -33 47 -250 268 -328 335 -29 25 -61 52 -70 60 -47 42 -61 51 -66 42z"/>
 <path d="M3088 4354 c-9 -14 11 -56 22 -49 13 8 13 18 -3 40 -8 10 -16 14 -19 9z"/>
 <path d="M3156 4202 c-7 -12 44 -93 55 -87 5 4 0 23 -11 45 -21 41 -36 55 -44 42z"/>
 </g>
<g id="layer4" fill="#911414" stroke="none">
 <path d="M5895 12830 c-366 -32 -715 -187 -1090 -486 -138 -110 -458 -430 -595 -593 -283 -341 -567 -767 -823 -1233 -885 -1612 -1495 -3806 -1427 -5127 29 -543 138 -1023 355 -1557 41 -100 83 -201 94 -225 119 -265 152 -375 119 -395 -6 -4 -8 -3 -4 4 3 6 2 13 -3 16 -5 4 -12 2 -15 -3 -4 -5 -2 -12 4 -16 5 -3 25 -29 44 -58 75 -112 343 -430 355 -422 4 2 6 26 5 52 -2 58 -25 107 -163 340 -260 445 -381 689 -498 1008 -308 842 -341 1680 -113 2827 297 1494 936 3090 1685 4208 606 905 1255 1456 1884 1601 111 26 380 36 506 20 325 -43 678 -199 1030 -456 203 -148 374 -300 764 -678 123 -120 225 -207 243 -207 14 0 18 19 9 42 -14 38 -210 294 -349 458 -105 123 -155 170 -168 159 -17 -14 -130 48 -284 154 -409 283 -672 422 -947 502 -187 55 -436 81 -618 65z"/>
 </g>
<g id="layer5" fill="#f28888" stroke="none">
 <path d="M7476 5841 c-4 -5 -2 -12 4 -16 5 -3 10 -3 10 1 0 3 6 1 14 -5 10 -8 16 -9 21 -1 3 5 4 11 1 11 -3 1 -9 2 -13 3 -5 1 -13 5 -20 9 -6 4 -14 3 -17 -2z"/>
 <path d="M7585 5811 c-7 -12 12 -24 25 -16 11 7 4 25 -10 25 -5 0 -11 -4 -15 -9z"/>
 <path d="M4715 5451 c-7 -12 12 -24 25 -16 11 7 4 25 -10 25 -5 0 -11 -4 -15 -9z"/>
 <path d="M4815 5451 c-7 -12 12 -24 25 -16 11 7 4 25 -10 25 -5 0 -11 -4 -15 -9z"/>
 <path d="M4905 5441 c-7 -12 12 -24 25 -16 11 7 4 25 -10 25 -5 0 -11 -4 -15 -9z"/>
 <path d="M4995 5431 c-7 -12 12 -24 25 -16 11 7 4 25 -10 25 -5 0 -11 -4 -15 -9z"/>
 <path d="M7615 5431 c-7 -12 12 -24 25 -16 11 7 4 25 -10 25 -5 0 -11 -4 -15 -9z"/>
 <path d="M5085 5421 c-7 -12 12 -24 25 -16 11 7 4 25 -10 25 -5 0 -11 -4 -15 -9z"/>
 <path d="M7525 5421 c-7 -12 12 -24 25 -16 11 7 4 25 -10 25 -5 0 -11 -4 -15 -9z"/>
 <path d="M5175 5411 c-7 -12 12 -24 25 -16 11 7 4 25 -10 25 -5 0 -11 -4 -15 -9z"/>
 <path d="M7435 5411 c-7 -12 12 -24 25 -16 11 7 4 25 -10 25 -5 0 -11 -4 -15 -9z"/>
 <path d="M5265 5400 c-8 -12 20 -24 35 -15 6 3 8 11 5 16 -8 12 -32 12 -40 -1z"/>
 <path d="M7345 5401 c-7 -12 12 -24 25 -16 11 7 4 25 -10 25 -5 0 -11 -4 -15 -9z"/>
 <path d="M5355 5390 c-8 -12 20 -24 35 -15 6 3 8 11 5 16 -8 12 -32 12 -40 -1z"/>
 <path d="M7255 5391 c-7 -12 12 -24 25 -16 11 7 4 25 -10 25 -5 0 -11 -4 -15 -9z"/>
 <path d="M5445 5380 c-8 -12 20 -24 35 -15 6 3 8 11 5 16 -8 12 -32 12 -40 -1z"/>
 <path d="M7165 5381 c-7 -12 12 -24 25 -16 11 7 4 25 -10 25 -5 0 -11 -4 -15 -9z"/>
 <path d="M5535 5370 c-8 -12 20 -24 35 -15 6 3 8 11 5 16 -8 12 -32 12 -40 -1z"/>
 <path d="M7075 5371 c-7 -12 12 -24 25 -16 11 7 4 25 -10 25 -5 0 -11 -4 -15 -9z"/>
 <path d="M6998 5342 c-23 -27 -29 -40 -20 -46 5 -3 18 8 30 24 23 31 14 51 -10 22z"/>
 <path d="M6185 5330 c-4 -6 0 -12 7 -15 25 -9 273 0 273 10 0 13 -272 18 -280 5z"/>
 <path d="M6965 5270 c-4 -6 -3 -16 3 -22 6 -6 12 -6 17 2 4 6 3 16 -3 22 -6 6 -12 6 -17 -2z"/>
 <path d="M5590 5161 c-6 -12 -6 -22 -1 -26 6 -3 15 3 21 14 6 12 6 22 1 26 -6 3 -15 -3 -21 -14z"/>
 <path d="M5785 5111 c-9 -18 -11 -32 -5 -36 5 -3 16 8 25 24 9 18 11 32 5 36 -5 3 -16 -8 -25 -24z"/>
 <path d="M5655 4861 c-9 -18 -11 -32 -5 -36 5 -3 16 8 25 24 9 18 11 32 5 36 -5 3 -16 -8 -25 -24z"/>
 <path d="M9824 4089 c-27 -30 -92 -135 -175 -284 -214 -386 -441 -694 -724 -984 -486 -498 -1008 -821 -1735 -1076 -74 -26 -154 -56 -177 -66 -23 -11 -44 -19 -47 -19 -3 0 -30 -12 -61 -26 -59 -28 -81 -54 -68 -79 14 -24 75 -65 87 -57 11 7 22 9 66 16 66 11 274 71 420 121 950 330 1774 1017 2285 1905 66 114 115 210 200 395 38 83 39 101 9 141 -30 39 -53 43 -80 13z"/>
 </g>
<g id="layer6" fill="#e67070" stroke="none">
 <path d="M5830 9034 c-200 -13 -430 -45 -585 -81 -63 -14 -104 -25 -255 -67 -135 -38 -391 -144 -554 -229 -616 -322 -1132 -841 -1448 -1455 -268 -521 -402 -1147 -368 -1718 14 -227 60 -537 90 -612 9 -22 11 -22 39 -7 16 8 32 19 36 25 5 8 -7 87 -34 220 -27 134 -44 415 -38 635 7 231 23 366 67 585 249 1219 1194 2204 2406 2508 819 206 1709 89 2419 -318 61 -34 119 -68 130 -74 11 -6 71 -47 134 -91 62 -44 123 -87 135 -95 63 -44 155 -123 279 -242 50 -49 93 -88 96 -88 3 0 20 11 36 24 l30 25 -70 71 c-345 353 -827 650 -1316 814 -204 68 -464 125 -686 151 -124 15 -444 26 -543 19z"/>
 <path d="M5575 8820 c-8 -12 20 -24 35 -15 6 3 8 11 5 16 -8 12 -32 12 -40 -1z"/>
 <path d="M5385 8791 c-7 -12 12 -24 25 -16 11 7 4 25 -10 25 -5 0 -11 -4 -15 -9z"/>
 <path d="M5285 8771 c-7 -12 12 -24 25 -16 11 7 4 25 -10 25 -5 0 -11 -4 -15 -9z"/>
 <path d="M3836 8011 c-10 -11 -13 -22 -8 -25 5 -3 17 3 26 13 10 11 13 22 8 25 -5 3 -17 -3 -26 -13z"/>
 <path d="M3631 7806 c-13 -13 -18 -26 -13 -30 5 -3 19 5 31 18 13 13 18 26 13 30 -5 3 -19 -5 -31 -18z"/>
 <path d="M7074 6636 c-4 -10 -2 -22 4 -28 8 -8 13 -7 18 6 4 10 2 22 -4 28 -8 8 -13 7 -18 -6z"/>
 <path d="M4525 6620 c-4 -6 -4 -14 -1 -17 3 -3 1 -12 -5 -19 -6 -7 -8 -18 -4 -24 9 -14 28 -1 21 15 -2 7 1 18 7 24 8 8 8 14 0 22 -8 8 -13 8 -18 -1z"/>
 <path d="M7064 6566 c-4 -10 -2 -22 4 -28 8 -8 13 -7 18 6 4 10 2 22 -4 28 -8 8 -13 7 -18 -6z"/>
 <path d="M4504 6506 c-4 -10 -2 -22 4 -28 8 -8 13 -7 18 6 4 10 2 22 -4 28 -8 8 -13 7 -18 -6z"/>
 <path d="M4624 6506 c-4 -10 -2 -22 4 -28 8 -8 13 -7 18 6 4 10 2 22 -4 28 -8 8 -13 7 -18 -6z"/>
 <path d="M5624 6506 c-4 -10 -2 -22 4 -28 8 -8 13 -7 18 6 4 10 2 22 -4 28 -8 8 -13 7 -18 -6z"/>
 <path d="M7204 6506 c-4 -10 -2 -22 4 -28 8 -8 13 -7 18 6 4 10 2 22 -4 28 -8 8 -13 7 -18 -6z"/>
 <path d="M8204 6506 c-4 -10 -2 -22 4 -28 8 -8 13 -7 18 6 4 10 2 22 -4 28 -8 8 -13 7 -18 -6z"/>
 <path d="M2895 6440 c-4 -6 -3 -16 3 -22 6 -6 12 -6 17 2 4 6 3 16 -3 22 -6 6 -12 6 -17 -2z"/>
 <path d="M8634 6436 c-4 -10 -2 -22 4 -28 8 -8 13 -7 18 6 4 10 2 22 -4 28 -8 8 -13 7 -18 -6z"/>
 <path d="M4504 6427 c-7 -20 -2 -47 11 -50 14 -3 19 43 6 56 -7 7 -12 6 -17 -6z"/>
 <path d="M7204 6396 c-8 -21 3 -49 16 -41 5 3 10 15 10 25 0 25 -18 36 -26 16z"/>
 <path d="M4624 6386 c-4 -10 -2 -22 4 -28 8 -8 13 -7 18 6 4 10 2 22 -4 28 -8 8 -13 7 -18 -6z"/>
 <path d="M5624 6386 c-4 -10 -2 -22 4 -28 8 -8 13 -7 18 6 4 10 2 22 -4 28 -8 8 -13 7 -18 -6z"/>
 <path d="M8204 6386 c-4 -10 -2 -22 4 -28 8 -8 13 -7 18 6 4 10 2 22 -4 28 -8 8 -13 7 -18 -6z"/>
 <path d="M2875 6360 c-4 -6 -3 -16 3 -22 6 -6 12 -6 17 2 4 6 3 16 -3 22 -6 6 -12 6 -17 -2z"/>
 <path d="M5774 6356 c-4 -9 -4 -20 0 -23 3 -3 1 -12 -5 -19 -6 -7 -8 -18 -4 -24 8 -13 26 -3 24 13 -1 7 1 20 6 30 4 11 3 23 -3 29 -8 8 -13 7 -18 -6z"/>
 <path d="M7064 6336 c-4 -10 -2 -22 4 -28 8 -8 13 -7 18 6 4 10 2 22 -4 28 -8 8 -13 7 -18 -6z"/>
 <path d="M4515 6330 c-4 -6 -3 -16 3 -22 6 -6 12 -6 17 2 4 6 3 16 -3 22 -6 6 -12 6 -17 -2z"/>
 <path d="M8335 6310 c-4 -6 -3 -16 3 -22 6 -6 12 -6 17 2 4 6 3 16 -3 22 -6 6 -12 6 -17 -2z"/>
 <path d="M4645 6290 c-8 -13 13 -52 25 -45 9 6 2 43 -11 50 -4 3 -10 1 -14 -5z"/>
 <path d="M5604 6284 c-4 -10 -9 -22 -11 -26 -2 -4 1 -9 6 -13 15 -9 35 35 22 48 -7 7 -12 5 -17 -9z"/>
 <path d="M7225 6290 c-8 -13 13 -52 25 -45 9 6 2 43 -11 50 -4 3 -10 1 -14 -5z"/>
 <path d="M8184 6284 c-4 -10 -9 -22 -11 -26 -2 -4 1 -9 6 -13 15 -9 35 35 22 48 -7 7 -12 5 -17 -9z"/>
 <path d="M4525 6279 c-4 -6 -3 -15 3 -21 6 -6 8 -16 6 -23 -3 -7 -1 -16 5 -19 6 -4 8 -13 5 -20 -3 -8 0 -17 5 -21 6 -3 9 -10 6 -15 -3 -5 -1 -11 4 -14 5 -4 12 -2 15 3 4 5 2 12 -3 16 -6 3 -8 12 -5 19 3 8 1 17 -5 20 -6 4 -8 13 -5 20 3 8 1 17 -5 20 -6 4 -8 13 -5 20 7 17 -12 30 -21 15z"/>
 <path d="M7075 6270 c-4 -6 -2 -17 4 -24 6 -7 8 -15 6 -18 -3 -3 -1 -18 5 -33 7 -19 14 -25 21 -18 6 6 6 19 -2 39 -7 16 -11 34 -10 41 2 16 -16 26 -24 13z"/>
 <path d="M2844 6206 c-4 -10 -2 -22 4 -28 8 -8 13 -7 18 6 4 10 2 22 -4 28 -8 8 -13 7 -18 -6z"/>
 <path d="M2834 6146 c-4 -10 -2 -22 4 -28 8 -8 13 -7 18 6 4 10 2 22 -4 28 -8 8 -13 7 -18 -6z"/>
 <path d="M7117 6143 c-4 -6 0 -18 7 -28 8 -11 16 -14 19 -8 4 6 0 18 -7 28 -8 11 -16 14 -19 8z"/>
 <path d="M4736 6122 c-3 -5 3 -17 13 -26 11 -10 22 -13 25 -8 3 5 -3 17 -13 26 -11 10 -22 13 -25 8z"/>
 <path d="M5506 6111 c-10 -11 -13 -22 -8 -25 5 -3 17 3 26 13 10 11 13 22 8 25 -5 3 -17 -3 -26 -13z"/>
 <path d="M7316 6122 c-3 -5 3 -17 13 -26 11 -10 22 -13 25 -8 3 5 -3 17 -13 26 -11 10 -22 13 -25 8z"/>
 <path d="M8086 6111 c-10 -11 -13 -22 -8 -25 5 -3 17 3 26 13 10 11 13 22 8 25 -5 3 -17 -3 -26 -13z"/>
 <path d="M2825 6070 c-4 -6 -3 -16 3 -22 6 -6 12 -6 17 2 4 6 3 16 -3 22 -6 6 -12 6 -17 -2z"/>
 <path d="M4786 6072 c-3 -5 3 -17 13 -26 11 -10 22 -13 25 -8 3 5 -3 17 -13 26 -11 10 -22 13 -25 8z"/>
 <path d="M5456 6061 c-10 -11 -13 -22 -8 -25 5 -3 17 3 26 13 10 11 13 22 8 25 -5 3 -17 -3 -26 -13z"/>
 <path d="M7366 6072 c-3 -5 3 -17 13 -26 11 -10 22 -13 25 -8 3 5 -3 17 -13 26 -11 10 -22 13 -25 8z"/>
 <path d="M8036 6061 c-10 -11 -13 -22 -8 -25 5 -3 17 3 26 13 10 11 13 22 8 25 -5 3 -17 -3 -26 -13z"/>
 <path d="M4616 6052 c-3 -5 3 -17 13 -26 11 -10 22 -13 25 -8 3 5 -3 17 -13 26 -11 10 -22 13 -25 8z"/>
 <path d="M5626 6031 c-10 -11 -13 -22 -8 -25 5 -3 17 3 26 13 10 11 13 22 8 25 -5 3 -17 -3 -26 -13z"/>
 <path d="M7206 6012 c-3 -5 3 -17 13 -26 11 -10 22 -13 25 -8 3 5 -3 17 -13 26 -11 10 -22 13 -25 8z"/>
 <path d="M8151 5976 c-24 -24 -39 -46 -34 -49 6 -4 29 13 52 37 24 24 39 46 34 49 -6 4 -29 -13 -52 -37z"/>
 <path d="M8634 5996 c-4 -10 -2 -22 4 -28 8 -8 13 -7 18 6 4 10 2 22 -4 28 -8 8 -13 7 -18 -6z"/>
 <path d="M2814 5986 c-4 -10 -2 -22 4 -28 8 -8 13 -7 18 6 4 10 2 22 -4 28 -8 8 -13 7 -18 -6z"/>
 <path d="M4686 5982 c-3 -5 3 -17 13 -26 11 -10 22 -13 25 -8 3 5 -3 17 -13 26 -11 10 -22 13 -25 8z"/>
 <path d="M4945 5970 c-7 -12 32 -33 45 -25 6 4 8 10 5 14 -7 13 -44 20 -50 11z"/>
 <path d="M5292 5969 c-13 -5 -20 -13 -17 -19 8 -13 18 -13 40 3 23 17 8 28 -23 16z"/>
 <path d="M7525 5970 c-7 -12 32 -33 45 -25 6 4 8 10 5 14 -7 13 -44 20 -50 11z"/>
 <path d="M7872 5969 c-13 -5 -20 -13 -17 -19 8 -13 18 -13 40 3 23 17 8 28 -23 16z"/>
 <path d="M5521 5931 c-19 -16 -30 -31 -24 -34 5 -3 25 6 43 22 19 15 29 30 24 33 -5 4 -25 -6 -43 -21z"/>
 <path d="M7276 5952 c-3 -6 1 -15 8 -21 8 -7 17 -8 20 -3 3 6 -1 15 -8 21 -8 7 -17 8 -20 3z"/>
 <path d="M4736 5941 c-4 -5 7 -19 23 -30 16 -12 32 -17 35 -12 4 5 -7 19 -23 30 -16 12 -32 17 -35 12z"/>
 <path d="M5055 5940 c-8 -13 20 -24 41 -16 20 8 9 26 -16 26 -10 0 -22 -5 -25 -10z"/>
 <path d="M5165 5940 c-8 -13 20 -24 41 -16 20 8 9 26 -16 26 -10 0 -22 -5 -25 -10z"/>
 <path d="M7635 5940 c-8 -13 20 -24 41 -16 20 8 9 26 -16 26 -10 0 -22 -5 -25 -10z"/>
 <path d="M7745 5940 c-8 -13 20 -24 41 -16 20 8 9 26 -16 26 -10 0 -22 -5 -25 -10z"/>
 <path d="M7316 5921 c-3 -5 5 -16 19 -25 24 -16 45 -6 22 11 -24 19 -36 23 -41 14z"/>
 <path d="M8007 5874 c-38 -20 -24 -38 14 -19 16 9 27 20 24 25 -7 12 -4 13 -38 -6z"/>
 <path d="M2804 5856 c-8 -21 3 -49 16 -41 5 3 10 15 10 25 0 25 -18 36 -26 16z"/>
 <path d="M7425 5860 c-7 -12 32 -33 45 -25 6 4 8 10 5 14 -7 13 -44 20 -50 11z"/>
 <path d="M7936 5841 c-4 -6 -13 -8 -20 -5 -17 7 -30 -12 -16 -21 6 -4 16 -2 23 3 7 6 15 11 20 11 8 1 11 11 4 17 -3 3 -8 1 -11 -5z"/>
 <path d="M5286 5821 c-3 -5 -15 -7 -25 -4 -10 3 -22 0 -26 -6 -8 -14 20 -25 37 -15 7 5 18 9 23 9 14 0 19 19 7 23 -6 2 -13 -1 -16 -7z"/>
 <path d="M7535 5821 c-7 -12 12 -24 24 -16 5 3 12 1 16 -5 4 -6 11 -8 16 -4 5 3 7 10 3 15 -3 5 -9 7 -14 4 -5 -3 -11 -1 -15 5 -8 13 -22 13 -30 1z"/>
 <path d="M5035 5811 c-7 -12 12 -24 25 -16 11 7 4 25 -10 25 -5 0 -11 -4 -15 -9z"/>
 <path d="M7805 5810 c-8 -12 20 -24 35 -15 6 3 8 11 5 16 -8 12 -32 12 -40 -1z"/>
 <path d="M7645 5800 c-3 -5 0 -13 8 -16 23 -9 112 0 110 11 -4 14 -110 19 -118 5z"/>
 <path d="M8624 5726 c-4 -10 -2 -22 4 -28 8 -8 13 -7 18 6 4 10 2 22 -4 28 -8 8 -13 7 -18 -6z"/>
 <path d="M2804 5486 c-8 -21 3 -49 16 -41 5 3 10 15 10 25 0 25 -18 36 -26 16z"/>
 <path d="M4835 5450 c-8 -12 20 -24 35 -15 6 3 8 11 5 16 -8 12 -32 12 -40 -1z"/>
 <path d="M4925 5440 c-8 -12 20 -24 35 -15 6 3 8 11 5 16 -8 12 -32 12 -40 -1z"/>
 <path d="M7685 5440 c-8 -12 20 -24 35 -15 6 3 8 11 5 16 -8 12 -32 12 -40 -1z"/>
 <path d="M7825 5441 c-7 -12 12 -24 25 -16 11 7 4 25 -10 25 -5 0 -11 -4 -15 -9z"/>
 <path d="M5015 5430 c-8 -12 20 -24 35 -15 6 3 8 11 5 16 -8 12 -32 12 -40 -1z"/>
 <path d="M7595 5431 c-7 -12 12 -24 25 -16 11 7 4 25 -10 25 -5 0 -11 -4 -15 -9z"/>
 <path d="M5105 5420 c-8 -12 20 -24 35 -15 6 3 8 11 5 16 -8 12 -32 12 -40 -1z"/>
 <path d="M7505 5421 c-7 -12 12 -24 25 -16 11 7 4 25 -10 25 -5 0 -11 -4 -15 -9z"/>
 <path d="M5195 5410 c-8 -12 20 -24 35 -15 6 3 8 11 5 16 -8 12 -32 12 -40 -1z"/>
 <path d="M7415 5411 c-7 -12 12 -24 25 -16 11 7 4 25 -10 25 -5 0 -11 -4 -15 -9z"/>
 <path d="M5295 5401 c-7 -12 12 -24 25 -16 11 7 4 25 -10 25 -5 0 -11 -4 -15 -9z"/>
 <path d="M7325 5401 c-7 -12 12 -24 25 -16 11 7 4 25 -10 25 -5 0 -11 -4 -15 -9z"/>
 <path d="M4650 5381 c-6 -12 -6 -22 -1 -26 6 -3 15 3 21 14 6 12 6 22 1 26 -6 3 -15 -3 -21 -14z"/>
 <path d="M5385 5391 c-7 -12 12 -24 25 -16 11 7 4 25 -10 25 -5 0 -11 -4 -15 -9z"/>
 <path d="M7235 5391 c-7 -12 12 -24 25 -16 11 7 4 25 -10 25 -5 0 -11 -4 -15 -9z"/>
 <path d="M7145 5381 c-7 -12 12 -24 25 -16 11 7 4 25 -10 25 -5 0 -11 -4 -15 -9z"/>
 <path d="M10098 5373 c-24 -27 -41 -95 -98 -383 -82 -416 -199 -768 -370 -1115 -525 -1067 -1494 -1850 -2645 -2139 -359 -90 -614 -122 -1090 -136 -170 -5 -323 -13 -339 -18 -54 -15 -61 -71 -10 -80 10 -2 28 -12 39 -22 11 -10 29 -20 40 -22 12 -2 20 -11 20 -23 0 -16 6 -19 28 -17 15 2 35 -2 43 -8 10 -10 94 -11 342 -7 388 6 526 22 889 100 7 2 15 6 19 9 3 4 12 4 19 2 16 -6 29 12 15 21 -5 3 -16 3 -22 -1 -7 -5 -29 -9 -50 -9 -28 -1 -44 5 -60 22 -22 23 -22 24 -2 41 10 10 39 27 64 37 25 10 63 26 85 35 22 10 101 39 175 65 732 257 1246 577 1745 1086 290 296 513 597 729 984 164 294 190 324 230 269 16 -22 17 -29 5 -50 -9 -18 -10 -27 -2 -35 8 -8 17 2 32 36 12 26 21 51 21 54 0 4 9 25 19 47 34 70 121 345 161 509 40 166 70 323 91 482 11 88 11 93 -10 119 -12 15 -19 35 -16 44 3 9 -3 25 -15 35 -11 10 -20 28 -20 40 0 42 -36 58 -62 28z"/>
 <path d="M10225 5380 c-4 -6 -3 -16 3 -22 6 -6 12 -6 17 2 4 6 3 16 -3 22 -6 6 -12 6 -17 -2z"/>
 <path d="M7055 5371 c-7 -12 12 -24 25 -16 11 7 4 25 -10 25 -5 0 -11 -4 -15 -9z"/>
 <path d="M2814 5356 c-4 -10 -2 -22 4 -28 8 -8 13 -7 18 6 4 10 2 22 -4 28 -8 8 -13 7 -18 -6z"/>
 <path d="M5615 5361 c-7 -12 12 -24 25 -16 11 7 4 25 -10 25 -5 0 -11 -4 -15 -9z"/>
 <path d="M5945 5330 c-4 -6 -10 -8 -15 -5 -4 3 -13 -2 -19 -9 -7 -8 -8 -17 -3 -20 6 -3 15 1 22 9 7 8 16 13 20 10 5 -3 11 -1 14 4 4 5 2 12 -3 15 -5 4 -12 2 -16 -4z"/>
 <path d="M6305 5331 c-7 -12 12 -24 25 -16 11 7 4 25 -10 25 -5 0 -11 -4 -15 -9z"/>
 <path d="M6685 5331 c-7 -12 12 -24 25 -16 11 7 4 25 -10 25 -5 0 -11 -4 -15 -9z"/>
 <path d="M5650 5275 c-6 -15 -13 -31 -15 -36 -3 -4 -1 -10 4 -14 15 -9 45 55 32 68 -7 7 -13 2 -21 -18z"/>
 <path d="M6735 5290 c-4 -6 -3 -16 3 -22 6 -6 12 -6 17 2 4 6 3 16 -3 22 -6 6 -12 6 -17 -2z"/>
 <path d="M7945 5289 c-4 -6 -3 -15 3 -21 6 -6 8 -16 6 -23 -3 -7 -1 -16 5 -19 14 -9 25 14 13 26 -6 6 -8 16 -6 23 7 17 -12 29 -21 14z"/>
 <path d="M2824 5266 c-4 -10 -2 -22 4 -28 8 -8 13 -7 18 6 4 10 2 22 -4 28 -8 8 -13 7 -18 -6z"/>
 <path d="M10219 5276 c-5 -23 -2 -46 5 -48 12 -4 15 41 4 48 -4 3 -8 3 -9 0z"/>
 <path d="M4590 5251 c-6 -12 -6 -22 -1 -26 6 -3 15 3 21 14 6 12 6 22 1 26 -6 3 -15 -3 -21 -14z"/>
 <path d="M5815 5171 c-9 -18 -11 -32 -5 -36 5 -3 16 8 25 24 9 18 11 32 5 36 -5 3 -16 -8 -25 -24z"/>
 <path d="M4540 5141 c-6 -12 -6 -22 -1 -26 6 -3 15 3 21 14 6 12 6 22 1 26 -6 3 -15 -3 -21 -14z"/>
 <path d="M7955 5140 c-4 -6 -3 -16 3 -22 6 -6 12 -6 17 2 4 6 3 16 -3 22 -6 6 -12 6 -17 -2z"/>
 <path d="M5570 5121 c-6 -12 -6 -22 -1 -26 6 -3 15 3 21 14 6 12 6 22 1 26 -6 3 -15 -3 -21 -14z"/>
 <path d="M3695 5108 c-9 -22 -2 -68 10 -71 14 -3 19 63 6 76 -7 7 -12 5 -16 -5z"/>
 <path d="M4480 5011 c-6 -12 -6 -22 -1 -26 6 -3 15 3 21 14 6 12 6 22 1 26 -6 3 -15 -3 -21 -14z"/>
 <path d="M5500 4991 c-6 -12 -6 -22 -1 -26 6 -3 15 3 21 14 6 12 6 22 1 26 -6 3 -15 -3 -21 -14z"/>
 <path d="M5700 4951 c-17 -34 -26 -63 -20 -66 5 -3 23 21 40 54 17 34 26 63 20 66 -5 3 -23 -21 -40 -54z"/>
 <path d="M7685 4916 c-11 -8 -14 -16 -8 -19 6 -4 18 0 28 7 11 8 14 16 8 19 -6 4 -18 0 -28 -7z"/>
 <path d="M5430 4861 c-6 -12 -6 -22 -1 -26 6 -3 15 3 21 14 6 12 6 22 1 26 -6 3 -15 -3 -21 -14z"/>
 <path d="M7915 4856 c-11 -8 -14 -16 -8 -19 6 -4 18 0 28 7 11 8 14 16 8 19 -6 4 -18 0 -28 -7z"/>
 <path d="M7477 4809 c-21 -11 -35 -24 -32 -29 4 -6 23 -1 46 10 22 12 37 25 34 30 -7 12 -2 13 -48 -11z"/>
 <path d="M6734 4756 c-4 -9 -4 -20 0 -23 3 -3 1 -12 -6 -20 -6 -7 -8 -16 -5 -20 4 -3 2 -12 -4 -19 -7 -8 -7 -14 1 -19 5 -3 11 -4 11 -1 3 14 7 27 9 34 2 4 4 12 5 17 1 6 5 18 10 28 4 11 3 23 -3 29 -8 8 -13 7 -18 -6z"/>
 <path d="M5360 4731 c-6 -12 -6 -22 -1 -26 6 -3 15 3 21 14 6 12 6 22 1 26 -6 3 -15 -3 -21 -14z"/>
 <path d="M5590 4731 c-6 -12 -6 -22 -1 -26 6 -3 15 3 21 14 6 12 6 22 1 26 -6 3 -15 -3 -21 -14z"/>
 <path d="M6964 4726 c-4 -10 -2 -22 4 -28 8 -8 13 -7 18 6 4 10 2 22 -4 28 -8 8 -13 7 -18 -6z"/>
 <path d="M5565 4660 c-4 -6 -3 -16 3 -22 6 -6 12 -6 17 2 4 6 3 16 -3 22 -6 6 -12 6 -17 -2z"/>
 <path d="M5296 4631 c-15 -16 -23 -31 -18 -35 5 -3 21 8 36 23 15 16 23 31 18 35 -5 3 -21 -8 -36 -23z"/>
 <path d="M7347 4579 c-54 -27 -95 -54 -92 -59 3 -5 51 13 106 40 55 28 97 55 94 60 -3 6 -7 10 -8 9 -1 0 -46 -22 -100 -50z"/>
 <path d="M7065 4611 c-7 -12 12 -24 25 -16 11 7 4 25 -10 25 -5 0 -11 -4 -15 -9z"/>
 <path d="M5236 4591 c-4 -6 -13 -8 -20 -5 -17 7 -30 -12 -16 -21 6 -4 16 -2 23 3 7 6 15 11 20 11 8 1 11 11 4 17 -3 3 -8 1 -11 -5z"/>
 <path d="M5115 4581 c-7 -12 12 -24 25 -16 11 7 4 25 -10 25 -5 0 -11 -4 -15 -9z"/>
 <path d="M6651 4576 c-7 -8 -8 -17 -3 -20 6 -3 15 1 21 8 7 8 8 17 3 20 -6 3 -15 -1 -21 -8z"/>
 <path d="M6535 4531 c-7 -12 12 -24 25 -16 11 7 4 25 -10 25 -5 0 -11 -4 -15 -9z"/>
 <path d="M5645 4520 c-8 -12 20 -24 35 -15 6 3 8 11 5 16 -8 12 -32 12 -40 -1z"/>
 <path d="M6465 4520 c-8 -12 20 -24 35 -15 6 3 8 11 5 16 -8 12 -32 12 -40 -1z"/>
 <path d="M7025 4421 c-7 -12 12 -24 25 -16 11 7 4 25 -10 25 -5 0 -11 -4 -15 -9z"/>
 <path d="M5125 4391 c-7 -12 12 -24 25 -16 11 7 4 25 -10 25 -5 0 -11 -4 -15 -9z"/>
 <path d="M6835 4390 c-8 -12 20 -24 35 -15 6 3 8 11 5 16 -8 12 -32 12 -40 -1z"/>
 <path d="M6665 4370 c-8 -12 20 -24 35 -15 6 3 8 11 5 16 -8 12 -32 12 -40 -1z"/>
 <path d="M5365 4361 c-7 -13 17 -24 40 -19 9 1 16 8 16 13 0 14 -48 19 -56 6z"/>
 <path d="M6195 4360 c-3 -5 0 -13 8 -16 23 -9 142 0 142 11 0 14 -142 19 -150 5z"/>
 </g>
<g id="layer7" fill="#ea5050" stroke="none">
 <path d="M5785 9030 c-3 -5 0 -13 8 -16 23 -8 92 0 92 11 0 14 -92 19 -100 5z"/>
 <path d="M6105 9030 c-3 -5 0 -13 8 -16 23 -8 92 0 92 11 0 14 -92 19 -100 5z"/>
 <path d="M5665 9020 c-8 -13 20 -24 41 -16 20 8 9 26 -16 26 -10 0 -22 -5 -25 -10z"/>
 <path d="M6275 9020 c-8 -13 20 -24 41 -16 20 8 9 26 -16 26 -10 0 -22 -5 -25 -10z"/>
 <path d="M5575 9010 c-8 -12 20 -24 35 -15 6 3 8 11 5 16 -8 12 -32 12 -40 -1z"/>
 <path d="M6375 9010 c-8 -12 20 -24 35 -15 6 3 8 11 5 16 -8 12 -32 12 -40 -1z"/>
 <path d="M5505 9001 c-7 -12 12 -24 25 -16 11 7 4 25 -10 25 -5 0 -11 -4 -15 -9z"/>
 <path d="M6455 9001 c-7 -12 12 -24 25 -16 11 7 4 25 -10 25 -5 0 -11 -4 -15 -9z"/>
 <path d="M5445 8991 c-7 -12 12 -24 25 -16 11 7 4 25 -10 25 -5 0 -11 -4 -15 -9z"/>
 <path d="M6515 8990 c-8 -12 20 -24 35 -15 6 3 8 11 5 16 -8 12 -32 12 -40 -1z"/>
 <path d="M5385 8981 c-7 -12 12 -24 25 -16 11 7 4 25 -10 25 -5 0 -11 -4 -15 -9z"/>
 <path d="M6575 8981 c-7 -12 12 -24 25 -16 11 7 4 25 -10 25 -5 0 -11 -4 -15 -9z"/>
 <path d="M5325 8971 c-7 -12 12 -24 25 -16 11 7 4 25 -10 25 -5 0 -11 -4 -15 -9z"/>
 <path d="M6625 8970 c-7 -11 22 -26 32 -16 3 3 12 1 19 -5 7 -6 18 -8 24 -4 14 9 1 28 -16 21 -7 -3 -16 -1 -19 4 -8 13 -32 13 -40 0z"/>
 <path d="M5235 8951 c-7 -12 12 -24 25 -16 11 7 4 25 -10 25 -5 0 -11 -4 -15 -9z"/>
 <path d="M6725 8951 c-7 -12 12 -24 24 -16 5 3 13 0 16 -6 4 -5 13 -8 21 -5 7 3 16 1 20 -5 3 -6 12 -8 20 -5 7 3 16 1 20 -5 3 -6 12 -8 20 -5 7 3 16 1 20 -5 3 -6 12 -8 19 -5 7 2 18 -1 24 -7 6 -6 11 -7 11 -3 0 5 7 3 15 -4 8 -7 15 -9 15 -5 0 4 6 2 14 -4 8 -6 18 -11 22 -10 5 1 12 0 17 -1 4 -1 12 -4 17 -5 6 -1 12 -4 15 -5 3 -1 8 -3 13 -5 4 -1 24 -9 44 -18 21 -10 45 -18 55 -20 10 -2 28 -9 41 -15 12 -7 22 -10 22 -7 0 3 10 -1 23 -9 12 -8 25 -15 30 -15 4 0 21 -8 37 -16 16 -8 32 -15 35 -15 19 1 345 -174 437 -234 16 -10 29 -13 32 -7 8 13 -126 95 -306 187 -81 41 -150 74 -153 74 -3 0 -19 7 -35 15 -17 9 -30 13 -30 10 0 -3 -11 2 -25 11 -14 9 -25 13 -25 10 0 -4 -10 0 -22 8 -13 8 -26 15 -30 16 -4 0 -23 7 -43 15 -19 8 -42 16 -52 18 -10 1 -24 6 -30 10 -7 5 -13 5 -13 1 0 -3 -7 -1 -15 6 -8 7 -15 9 -15 5 0 -4 -7 -2 -15 5 -9 7 -18 10 -22 7 -3 -4 -12 -2 -20 4 -7 6 -13 8 -13 4 0 -4 -7 -2 -15 5 -8 7 -15 9 -15 5 0 -4 -7 -2 -15 5 -8 6 -19 9 -24 6 -5 -4 -13 -1 -16 5 -4 5 -13 8 -21 5 -7 -3 -16 -1 -20 5 -3 6 -12 8 -20 5 -7 -3 -16 -1 -20 5 -3 6 -12 8 -20 5 -7 -3 -16 -1 -19 4 -8 13 -22 13 -30 1z"/>
 <path d="M5005 8891 c-7 -12 12 -24 25 -16 11 7 4 25 -10 25 -5 0 -11 -4 -15 -9z"/>
 <path d="M7836 8481 c-3 -5 5 -16 19 -25 24 -16 45 -6 22 11 -24 19 -36 23 -41 14z"/>
 <path d="M7746 8452 c-3 -6 1 -15 8 -21 8 -7 17 -8 20 -3 3 6 -1 15 -8 21 -8 7 -17 8 -20 3z"/>
 <path d="M7956 8402 c-3 -6 1 -15 8 -21 8 -7 17 -8 20 -3 3 6 -1 15 -8 21 -8 7 -17 8 -20 3z"/>
 <path d="M7996 8372 c-3 -6 1 -15 8 -21 8 -7 17 -8 20 -3 3 6 -1 15 -8 21 -8 7 -17 8 -20 3z"/>
 <path d="M8036 8342 c-3 -6 1 -15 8 -21 8 -7 17 -8 20 -3 3 6 -1 15 -8 21 -8 7 -17 8 -20 3z"/>
 <path d="M8076 8312 c-3 -5 3 -17 13 -26 11 -10 22 -13 25 -8 3 5 -3 17 -13 26 -11 10 -22 13 -25 8z"/>
 <path d="M8126 8272 c-3 -5 5 -19 18 -31 13 -13 26 -18 30 -13 3 5 -5 19 -18 31 -13 13 -26 18 -30 13z"/>
 <path d="M8016 8262 c-3 -6 1 -15 8 -21 8 -7 17 -8 20 -3 3 6 -1 15 -8 21 -8 7 -17 8 -20 3z"/>
 <path d="M8066 8222 c-3 -6 1 -15 8 -21 8 -7 17 -8 20 -3 3 6 -1 15 -8 21 -8 7 -17 8 -20 3z"/>
 <path d="M8196 8212 c-3 -5 8 -21 23 -36 16 -15 31 -23 35 -18 3 5 -8 21 -23 36 -16 15 -31 23 -35 18z"/>
 <path d="M8116 8182 c-3 -5 3 -17 13 -26 11 -10 22 -13 25 -8 3 5 -3 17 -13 26 -11 10 -22 13 -25 8z"/>
 <path d="M8297 8124 c-3 -6 14 -30 38 -54 25 -24 45 -48 45 -54 0 -5 -3 -6 -6 -3 -12 12 -41 -12 -39 -33 1 -11 28 -49 61 -83 422 -436 732 -1060 838 -1687 40 -233 49 -377 44 -656 -3 -140 -1 -257 3 -260 4 -2 23 5 42 16 39 23 37 14 52 261 7 112 -9 400 -31 549 -90 621 -326 1169 -712 1651 -121 151 -326 367 -335 353z"/>
 <path d="M8196 8112 c-3 -5 5 -19 18 -31 13 -13 26 -18 30 -13 3 5 -5 19 -18 31 -13 13 -26 18 -30 13z"/>
 <path d="M9716 7822 c-3 -6 14 -102 38 -214 136 -624 217 -1141 247 -1583 15 -213 6 -642 -16 -825 -179 -1478 -1144 -2726 -2535 -3280 -465 -185 -929 -272 -1460 -273 -346 -1 -607 26 -925 95 -140 30 -451 118 -555 157 -30 11 -106 36 -169 56 -93 29 -117 33 -127 23 -10 -10 11 -34 104 -117 65 -58 123 -115 130 -128 7 -13 17 -23 23 -23 5 0 9 -8 7 -17 -2 -10 2 -18 7 -18 6 0 19 -6 30 -12 35 -19 326 -110 455 -142 230 -56 596 -113 700 -108 38 2 53 20 21 25 -10 2 -27 12 -37 23 -9 10 -25 19 -34 19 -9 0 -25 9 -35 20 -10 11 -26 20 -37 20 -11 0 -18 7 -18 19 0 27 30 31 370 41 470 14 726 47 1085 136 1153 289 2137 1086 2665 2159 173 351 285 691 375 1135 47 236 62 300 74 333 13 34 41 36 41 4 0 -13 9 -32 20 -42 12 -11 18 -25 15 -36 -3 -10 4 -29 19 -46 l24 -28 10 25 c14 38 17 126 17 475 -1 378 -22 623 -91 1020 -14 83 -25 158 -25 167 0 10 -5 20 -10 23 -5 4 -7 11 -4 16 4 5 3 15 -2 22 -4 6 -8 23 -8 37 0 14 -6 24 -13 23 -15 -4 -50 65 -68 135 -8 31 -28 79 -43 106 -16 28 -32 67 -36 86 -4 19 -12 41 -18 48 -5 7 -7 15 -3 19 3 3 0 13 -7 22 -18 21 -83 177 -92 221 -16 77 -94 206 -109 182z"/>
 <path d="M2820 6830 c-11 -21 -5 -44 9 -35 13 7 20 44 11 50 -5 3 -14 -4 -20 -15z"/>
 <path d="M2765 6670 c-4 -6 -4 -14 -1 -17 3 -3 1 -12 -5 -19 -6 -8 -6 -14 0 -18 5 -4 12 -2 16 4 3 5 3 10 -1 10 -3 0 -1 7 6 15 9 11 10 19 3 26 -8 8 -13 7 -18 -1z"/>
 <path d="M2736 6571 c-4 -6 -5 -15 -1 -20 3 -5 0 -13 -6 -16 -5 -4 -8 -13 -5 -21 3 -7 1 -16 -5 -20 -6 -3 -8 -12 -5 -20 3 -7 1 -16 -5 -20 -6 -3 -8 -12 -5 -19 2 -7 0 -17 -6 -23 -12 -12 -1 -35 13 -26 6 3 8 12 5 20 -3 7 -1 16 5 20 6 3 8 12 5 20 -3 7 -1 16 5 20 6 3 8 12 5 20 -3 7 -1 16 5 20 6 3 8 12 5 19 -2 7 1 18 7 24 8 8 8 14 0 22 -8 8 -13 8 -17 0z"/>
 <path d="M2685 6360 c-4 -6 -3 -16 3 -22 6 -6 12 -6 17 2 4 6 3 16 -3 22 -6 6 -12 6 -17 -2z"/>
 <path d="M2675 6310 c-4 -6 -3 -16 3 -22 6 -6 12 -6 17 2 4 6 3 16 -3 22 -6 6 -12 6 -17 -2z"/>
 <path d="M2665 6260 c-4 -6 -3 -16 3 -22 6 -6 12 -6 17 2 4 6 3 16 -3 22 -6 6 -12 6 -17 -2z"/>
 <path d="M2655 6200 c-4 -6 -3 -16 3 -22 6 -6 12 -6 17 2 4 6 3 16 -3 22 -6 6 -12 6 -17 -2z"/>
 <path d="M2644 6136 c-4 -10 -2 -22 4 -28 8 -8 13 -7 18 6 4 10 2 22 -4 28 -8 8 -13 7 -18 -6z"/>
 <path d="M2634 6066 c-8 -21 3 -49 16 -41 5 3 10 15 10 25 0 25 -18 36 -26 16z"/>
 <path d="M2624 5977 c-7 -20 -2 -47 11 -50 14 -3 19 43 6 56 -7 7 -12 6 -17 -6z"/>
 <path d="M2615 5848 c-10 -24 -1 -123 10 -121 14 4 19 113 6 126 -7 7 -12 5 -16 -5z"/>
 <path d="M2615 5578 c-10 -24 -1 -123 10 -121 14 4 19 113 6 126 -7 7 -12 5 -16 -5z"/>
 <path d="M2624 5387 c-7 -20 -2 -47 11 -50 14 -3 19 43 6 56 -7 7 -12 6 -17 -6z"/>
 <path d="M5485 5381 c-7 -12 12 -24 25 -16 11 7 4 25 -10 25 -5 0 -11 -4 -15 -9z"/>
 <path d="M5575 5371 c-7 -12 12 -24 25 -16 11 7 4 25 -10 25 -5 0 -11 -4 -15 -9z"/>
 <path d="M5891 5296 c-7 -8 -8 -17 -3 -20 6 -3 15 1 21 8 7 8 8 17 3 20 -6 3 -15 -1 -21 -8z"/>
 <path d="M2634 5287 c-7 -20 -2 -47 11 -50 14 -3 19 43 6 56 -7 7 -12 6 -17 -6z"/>
 <path d="M2715 5230 c-4 -6 -3 -16 3 -22 6 -6 12 -6 17 2 4 6 3 16 -3 22 -6 6 -12 6 -17 -2z"/>
 <path d="M2644 5206 c-8 -21 3 -49 16 -41 5 3 10 15 10 25 0 25 -18 36 -26 16z"/>
 <path d="M2725 5160 c-4 -6 -3 -16 3 -22 6 -6 12 -6 17 2 4 6 3 16 -3 22 -6 6 -12 6 -17 -2z"/>
 <path d="M2654 5136 c-4 -10 -2 -22 4 -28 8 -8 13 -7 18 6 4 10 2 22 -4 28 -8 8 -13 7 -18 -6z"/>
 <path d="M2735 5100 c-4 -6 -3 -16 3 -22 6 -6 12 -6 17 2 4 6 3 16 -3 22 -6 6 -12 6 -17 -2z"/>
 <path d="M2664 5076 c-4 -10 -2 -22 4 -28 8 -8 13 -7 18 6 4 10 2 22 -4 28 -8 8 -13 7 -18 -6z"/>
 <path d="M2675 5020 c-4 -6 -3 -16 3 -22 6 -6 12 -6 17 2 4 6 3 16 -3 22 -6 6 -12 6 -17 -2z"/>
 <path d="M2685 4969 c-4 -6 -3 -15 3 -21 6 -6 8 -16 6 -23 -3 -7 -1 -16 5 -19 14 -9 25 14 13 26 -6 6 -8 16 -6 23 7 17 -12 29 -21 14z"/>
 <path d="M2765 4950 c-4 -6 -3 -16 3 -22 6 -6 12 -6 17 2 4 6 3 16 -3 22 -6 6 -12 6 -17 -2z"/>
 <path d="M2765 4894 c-11 -8 -28 -13 -37 -10 -10 2 -20 0 -23 -4 -3 -4 13 -71 35 -148 156 -543 428 -1013 820 -1416 287 -295 541 -484 887 -663 l143 -73 40 20 c22 11 43 19 47 18 5 -2 9 2 11 7 1 6 -1 10 -5 10 -5 0 -64 29 -133 64 -756 382 -1307 982 -1613 1756 -49 124 -112 322 -132 412 -8 41 -15 45 -40 27z"/>
 <path d="M4105 1850 c-3 -5 8 -16 24 -25 18 -9 32 -11 36 -5 3 5 -8 16 -24 25 -18 9 -32 11 -36 5z"/>
 </g>
<g id="layer8" fill="#cbcbca" stroke="none">
 <path d="M5780 8843 c-755 -58 -1418 -348 -1972 -864 -71 -66 -106 -105 -99 -112 6 -6 33 11 78 49 146 127 431 333 466 338 7 1 31 12 52 25 22 13 78 44 125 69 47 25 92 51 100 58 8 7 29 16 45 20 31 7 52 16 122 52 23 12 49 22 58 22 8 0 23 4 33 10 13 7 224 79 252 85 55 12 77 18 85 23 6 4 19 8 30 9 11 2 32 8 47 14 15 6 31 8 37 5 5 -4 12 -2 15 2 3 5 54 17 113 26 59 10 115 21 124 26 9 5 29 7 45 5 16 -2 34 0 39 5 14 11 85 13 385 13 279 0 409 -5 426 -16 6 -3 27 -6 45 -6 19 0 45 -2 59 -5 13 -3 42 -8 65 -11 22 -4 101 -22 175 -41 74 -20 140 -36 145 -37 6 -2 15 -6 21 -9 6 -4 26 -10 44 -13 18 -3 40 -10 49 -14 9 -5 50 -20 91 -34 200 -66 476 -212 707 -373 304 -212 591 -516 785 -832 418 -681 539 -1498 338 -2285 -92 -361 -258 -717 -480 -1027 -512 -716 -1343 -1199 -2215 -1287 -125 -13 -597 -9 -715 5 -1017 125 -1900 744 -2356 1653 -118 237 -227 542 -270 758 -16 79 -20 92 -29 89 -37 -11 62 -452 159 -706 69 -181 169 -380 247 -494 197 -289 493 -599 784 -820 104 -79 349 -235 366 -234 4 1 15 -6 25 -15 16 -14 300 -159 307 -157 1 0 20 -7 42 -17 221 -93 532 -174 815 -212 186 -25 601 -25 780 0 500 70 913 224 1320 491 348 229 662 547 899 911 74 113 207 372 259 505 72 182 156 469 176 600 3 19 10 58 15 85 6 28 13 68 16 90 2 22 10 85 16 140 29 236 9 667 -42 920 -106 527 -350 1040 -688 1442 -93 112 -382 413 -396 413 -4 0 -32 19 -63 43 -83 63 -227 160 -277 187 -11 5 -42 24 -70 40 -59 36 -244 125 -325 158 -14 5 -41 17 -60 25 -221 95 -593 181 -893 206 -118 10 -371 12 -477 4z"/>
 <path d="M3611 7776 c-18 -19 -29 -36 -23 -39 5 -4 23 9 41 27 18 19 29 36 23 39 -5 4 -23 -9 -41 -27z"/>
 <path d="M3541 7696 c-13 -13 -18 -26 -13 -30 5 -3 19 5 31 18 13 13 18 26 13 30 -5 3 -19 -5 -31 -18z"/>
 <path d="M3496 7641 c-10 -11 -13 -22 -8 -25 5 -3 17 3 26 13 10 11 13 22 8 25 -5 3 -17 -3 -26 -13z"/>
 <path d="M3461 7596 c-7 -8 -8 -17 -3 -20 6 -3 15 1 21 8 7 8 8 17 3 20 -6 3 -15 -1 -21 -8z"/>
 <path d="M3431 7556 c-7 -8 -8 -17 -3 -20 6 -3 15 1 21 8 7 8 8 17 3 20 -6 3 -15 -1 -21 -8z"/>
 <path d="M3356 7453 c-30 -43 -52 -82 -49 -86 7 -11 18 2 76 85 26 37 43 69 38 73 -6 3 -35 -29 -65 -72z"/>
 <path d="M3261 7306 c-7 -8 -8 -17 -3 -20 6 -3 15 1 21 8 7 8 8 17 3 20 -6 3 -15 -1 -21 -8z"/>
 <path d="M3231 7256 c-7 -8 -8 -17 -3 -20 6 -3 15 1 21 8 7 8 8 17 3 20 -6 3 -15 -1 -21 -8z"/>
 <path d="M3182 7168 c-20 -31 -20 -54 -1 -43 16 11 39 64 30 69 -5 3 -18 -8 -29 -26z"/>
 <path d="M3106 7022 c-16 -26 -24 -62 -16 -67 14 -8 44 55 32 67 -6 6 -12 6 -16 0z"/>
 <path d="M5035 6941 c-7 -12 12 -24 25 -16 11 7 4 25 -10 25 -5 0 -11 -4 -15 -9z"/>
 <path d="M5205 6941 c-7 -12 12 -24 25 -16 11 7 4 25 -10 25 -5 0 -11 -4 -15 -9z"/>
 <path d="M3055 6910 c-4 -6 -3 -16 3 -22 6 -6 12 -6 17 2 4 6 3 16 -3 22 -6 6 -12 6 -17 -2z"/>
 <path d="M4851 6866 c-7 -8 -8 -17 -3 -20 6 -3 15 1 21 8 7 8 8 17 3 20 -6 3 -15 -1 -21 -8z"/>
 <path d="M3035 6860 c-4 -6 -3 -16 3 -22 6 -6 12 -6 17 2 4 6 3 16 -3 22 -6 6 -12 6 -17 -2z"/>
 <path d="M3015 6810 c-4 -6 -3 -16 3 -22 6 -6 12 -6 17 2 4 6 3 16 -3 22 -6 6 -12 6 -17 -2z"/>
 <path d="M2995 6750 c-20 -32 -54 -155 -45 -164 10 -10 9 -14 44 91 14 40 21 75 16 78 -5 3 -11 1 -15 -5z"/>
 <path d="M2925 6540 c-4 -6 -3 -16 3 -22 6 -6 12 -6 17 2 4 6 3 16 -3 22 -6 6 -12 6 -17 -2z"/>
 <path d="M2905 6470 c-4 -6 -3 -16 3 -22 6 -6 12 -6 17 2 4 6 3 16 -3 22 -6 6 -12 6 -17 -2z"/>
 <path d="M2875 6340 c-4 -6 -3 -16 3 -22 6 -6 12 -6 17 2 4 6 3 16 -3 22 -6 6 -12 6 -17 -2z"/>
 <path d="M2855 6240 c-4 -6 -3 -16 3 -22 6 -6 12 -6 17 2 4 6 3 16 -3 22 -6 6 -12 6 -17 -2z"/>
 <path d="M2845 6180 c-4 -6 -3 -16 3 -22 6 -6 12 -6 17 2 4 6 3 16 -3 22 -6 6 -12 6 -17 -2z"/>
 <path d="M2825 6040 c-4 -6 -3 -16 3 -22 6 -6 12 -6 17 2 4 6 3 16 -3 22 -6 6 -12 6 -17 -2z"/>
 <path d="M2814 5936 c-4 -10 -2 -22 4 -28 8 -8 13 -7 18 6 4 10 2 22 -4 28 -8 8 -13 7 -18 -6z"/>
 <path d="M2805 5758 c-9 -23 -2 -83 10 -83 14 0 19 75 6 88 -7 7 -12 5 -16 -5z"/>
 <path d="M2805 5628 c-9 -23 -2 -83 10 -83 14 0 19 75 6 88 -7 7 -12 5 -16 -5z"/>
 <path d="M2814 5396 c-4 -10 -2 -22 4 -28 8 -8 13 -7 18 6 4 10 2 22 -4 28 -8 8 -13 7 -18 -6z"/>
 <path d="M2824 5296 c-4 -10 -2 -22 4 -28 8 -8 13 -7 18 6 4 10 2 22 -4 28 -8 8 -13 7 -18 -6z"/>
 </g>
<g id="layer9" fill="#690e0e" stroke="none">
 <path d="M5745 13036 c-228 -37 -451 -117 -670 -239 -898 -502 -1784 -1733 -2470 -3431 -461 -1142 -769 -2358 -845 -3340 -13 -168 -13 -600 1 -746 66 -734 305 -1407 711 -2007 76 -113 94 -120 89 -37 -3 67 -36 159 -132 373 -11 24 -53 125 -94 225 -217 534 -326 1014 -355 1557 -68 1321 542 3515 1427 5127 256 466 540 892 824 1233 135 163 436 463 574 573 460 366 894 523 1346 486 413 -34 746 -178 1314 -570 142 -98 267 -166 284 -156 26 17 4 50 -106 157 -457 445 -869 690 -1308 780 -137 28 -462 36 -590 15z"/>
 </g>
<g id="layer10" fill="#b32727" stroke="none">
 <path d="M5835 12813 c-735 -95 -1545 -812 -2251 -1993 -661 -1104 -1197 -2519 -1464 -3858 -228 -1147 -195 -1985 113 -2827 118 -321 236 -560 504 -1016 140 -240 167 -298 153 -334 -10 -27 -7 -32 62 -103 116 -118 290 -272 300 -266 5 3 4 12 -3 20 -6 8 -9 25 -6 39 7 37 -66 151 -305 477 -567 775 -872 1578 -929 2443 -63 968 303 2568 920 4016 78 185 96 225 218 484 282 600 650 1208 1008 1665 315 402 700 761 1031 961 120 72 293 153 414 193 309 102 543 99 873 -11 574 -191 1123 -639 1772 -1447 44 -54 97 -120 118 -145 20 -25 63 -80 96 -121 32 -41 75 -95 95 -120 20 -25 51 -63 69 -85 18 -21 45 -52 61 -67 28 -26 31 -26 48 -11 17 15 16 19 -19 82 -133 240 -448 725 -465 715 -5 -3 -7 -12 -4 -20 15 -40 -81 45 -405 355 -434 416 -700 619 -1019 777 -298 148 -528 205 -810 202 -80 0 -158 -3 -175 -5z"/>
 <path d="M5725 8949 c-619 -57 -1178 -264 -1665 -618 -271 -197 -543 -468 -743 -743 -270 -370 -466 -814 -557 -1258 -51 -250 -63 -372 -64 -640 -2 -407 24 -598 134 -985 60 -212 203 -531 335 -750 227 -375 551 -726 905 -981 1001 -721 2333 -822 3425 -260 337 174 599 368 870 647 519 534 825 1183 916 1944 20 160 17 576 -5 740 -93 716 -382 1339 -857 1851 -542 584 -1233 939 -2019 1039 -149 19 -535 27 -675 14z m532 -130 c753 -63 1451 -386 1983 -919 502 -501 811 -1134 907 -1855 12 -95 17 -200 17 -390 0 -344 -26 -543 -110 -849 -251 -911 -901 -1666 -1764 -2050 -1451 -644 -3147 -127 -3988 1214 -264 422 -429 919 -473 1430 -14 163 -6 518 15 671 60 432 202 840 420 1207 478 805 1287 1356 2221 1513 212 35 544 47 772 28z"/>
 <path d="M5011 6934 c-245 -66 -411 -304 -385 -553 7 -71 41 -165 79 -223 24 -37 44 -42 78 -21 6 4 20 8 30 9 31 3 32 4 14 18 -14 11 -15 16 -5 22 22 14 50 15 64 3 13 -11 18 -6 15 14 -1 4 7 7 16 5 10 -2 17 2 15 10 -1 6 6 13 15 14 26 2 36 4 55 12 9 4 132 5 274 2 180 -3 262 -1 272 6 9 8 16 8 24 0 46 -46 90 117 69 262 -42 290 -350 496 -630 420z"/>
 <path d="M7593 6935 c-197 -53 -355 -226 -384 -419 -15 -101 5 -247 32 -231 5 4 7 11 4 16 -4 5 25 9 67 10 40 1 87 3 103 5 61 9 160 10 172 2 6 -5 14 -5 18 2 7 11 36 14 34 3 -3 -20 2 -24 16 -13 12 10 29 6 91 -24 87 -41 161 -111 210 -198 28 -50 30 -58 17 -71 -8 -8 -11 -17 -6 -20 21 -13 164 127 198 194 107 206 72 444 -88 604 -130 130 -319 184 -484 140z"/>
 <path d="M3405 6658 c-3 -7 -4 -321 -3 -698 l3 -685 87 -3 87 -3 3 -82 3 -82 59 -3 58 -3 -6 -53 c-5 -38 -3 -56 6 -63 20 -15 276 -102 282 -95 3 3 6 400 6 883 0 691 -3 880 -12 886 -7 4 -138 9 -290 11 -225 3 -279 1 -283 -10z"/>
 <path d="M4087 6663 c-4 -3 -7 -179 -7 -390 0 -312 3 -390 14 -418 22 -52 56 -43 37 9 -8 20 -7 24 4 20 8 -4 30 8 49 27 30 28 33 35 24 53 -10 19 -9 19 5 8 13 -11 20 -11 41 3 14 10 27 21 27 26 1 5 2 13 3 18 2 18 16 24 30 12 9 -8 16 -8 20 -2 4 5 2 12 -4 16 -15 9 -12 22 5 22 8 0 15 -4 15 -8 0 -5 9 -13 19 -19 29 -15 36 5 11 30 -11 11 -16 20 -12 20 4 0 13 -5 19 -11 12 -12 37 -3 28 11 -3 5 36 9 87 9 51 0 92 3 91 8 -2 4 -12 33 -23 64 -47 136 -59 343 -26 441 8 23 13 45 10 50 -6 10 -458 11 -467 1z"/>
 <path d="M5756 6661 c-4 -5 -1 -22 5 -38 16 -39 24 -260 11 -305 -5 -20 -8 -39 -6 -41 3 -2 24 -1 47 4 72 13 307 30 414 30 57 0 114 4 128 9 13 5 26 6 29 2 6 -10 57 -9 74 2 7 4 19 3 27 -4 10 -8 15 -8 21 1 8 13 215 7 379 -11 50 -6 109 -12 132 -15 22 -2 46 -6 52 -7 7 -2 12 51 15 167 2 94 6 179 8 190 3 20 -3 20 -664 23 -400 1 -669 -2 -672 -7z"/>
 <path d="M8308 6665 c-3 -3 4 -34 15 -68 29 -89 29 -268 -2 -351 -48 -133 -136 -259 -225 -321 -32 -22 -58 -45 -56 -50 1 -6 6 -9 11 -7 16 4 9 -16 -7 -22 -15 -6 -15 -8 2 -28 11 -12 14 -18 7 -15 -16 10 -27 -11 -14 -27 8 -10 7 -16 -3 -25 -8 -7 -12 -19 -9 -27 3 -8 0 -20 -6 -28 -6 -7 -8 -15 -5 -18 8 -9 -32 -88 -105 -203 l-31 -51 37 -74 c30 -62 37 -88 40 -150 7 -145 5 -147 -596 -452 -238 -121 -279 -139 -314 -136 -40 3 -41 4 -54 53 -7 28 -13 71 -13 97 0 37 -4 50 -21 58 -15 9 -24 8 -36 -1 -8 -8 -25 -14 -37 -15 -11 -2 -48 -11 -80 -22 l-59 -19 -21 -64 c-30 -92 -56 -124 -124 -151 -56 -22 -65 -23 -496 -26 -454 -3 -483 -1 -513 38 -17 21 -16 79 2 129 8 22 13 41 12 42 -1 0 -27 2 -57 4 -30 2 -73 7 -95 12 -69 14 -74 12 -113 -57 -43 -74 -97 -110 -167 -110 -48 0 -43 -2 -483 172 -219 87 -240 101 -229 158 6 25 47 123 78 182 9 17 -7 31 -128 113 -8 6 -59 55 -114 110 -104 107 -182 203 -173 216 6 10 -31 31 -40 22 -3 -3 -6 -163 -6 -355 l0 -348 33 -21 c43 -27 260 -132 487 -236 216 -100 419 -180 551 -220 l94 -28 685 1 c675 2 762 5 985 38 137 21 136 21 356 133 176 90 712 353 866 426 46 21 81 48 129 100 132 143 266 341 332 493 49 111 49 109 58 519 7 357 -1 471 -43 554 l-28 56 -136 3 c-74 1 -138 0 -141 -3z"/>
 <path d="M4087 5673 c-8 -13 -1 -53 10 -64 20 -20 33 -1 21 31 -11 32 -24 45 -31 33z"/>
 <path d="M4086 5591 c-9 -15 23 -36 35 -24 8 8 5 14 -9 22 -12 6 -23 7 -26 2z"/>
 <path d="M3266 2402 c-3 -6 1 -15 8 -21 8 -7 17 -8 20 -3 3 6 -1 15 -8 21 -8 7 -17 8 -20 3z"/>
 </g>
<g id="layer11" fill="#ececec" stroke="none">
 <path d="M5693 8742 c-7 -4 -35 -7 -63 -6 -27 2 -52 -1 -55 -6 -3 -5 -19 -7 -36 -5 -17 2 -39 0 -48 -5 -9 -5 -65 -16 -124 -26 -59 -9 -110 -21 -113 -26 -3 -4 -10 -6 -15 -2 -6 3 -22 1 -37 -5 -15 -6 -36 -12 -47 -14 -11 -1 -24 -5 -30 -8 -5 -4 -23 -10 -40 -14 -16 -4 -39 -9 -50 -12 -11 -3 -27 -6 -35 -8 -8 -1 -31 -9 -50 -18 -19 -8 -62 -22 -95 -31 -33 -9 -68 -21 -77 -26 -10 -6 -23 -10 -30 -10 -11 0 -42 -13 -144 -61 -23 -10 -44 -19 -48 -19 -4 0 -19 -9 -35 -21 -15 -11 -34 -21 -42 -22 -8 -2 -32 -15 -54 -30 -22 -15 -47 -27 -56 -27 -9 0 -22 -7 -30 -16 -13 -16 -65 -46 -86 -50 -36 -6 -322 -213 -465 -336 -37 -32 -71 -58 -76 -58 -6 0 -24 -17 -40 -37 -37 -46 -97 -115 -134 -153 -16 -15 -28 -33 -28 -39 0 -6 -9 -15 -20 -21 -11 -6 -20 -17 -20 -24 0 -8 -7 -16 -15 -20 -8 -3 -15 -12 -15 -21 0 -8 -5 -15 -10 -15 -6 0 -14 -8 -17 -17 -4 -10 -36 -61 -72 -113 -73 -105 -86 -125 -102 -155 -5 -11 -25 -47 -44 -80 -35 -63 -72 -137 -110 -220 -21 -47 -29 -65 -55 -130 -5 -14 -14 -35 -19 -47 -13 -32 -75 -225 -89 -273 -6 -22 -18 -63 -26 -92 -9 -28 -16 -61 -16 -73 0 -12 -4 -29 -9 -38 -5 -10 -12 -44 -16 -77 -3 -33 -10 -76 -15 -95 -29 -115 -44 -532 -27 -737 31 -362 205 -856 432 -1229 208 -339 446 -603 770 -854 412 -318 952 -537 1485 -602 118 -14 590 -18 715 -5 822 83 1612 519 2139 1181 335 420 559 930 635 1443 106 711 -31 1398 -397 1995 -166 270 -405 540 -663 745 -246 198 -599 397 -849 480 -41 14 -82 29 -91 34 -9 4 -31 11 -49 14 -18 3 -38 9 -44 13 -6 3 -15 7 -21 9 -5 1 -71 17 -145 37 -74 19 -153 37 -175 41 -23 3 -52 8 -65 11 -14 3 -40 5 -59 5 -18 0 -39 3 -45 6 -15 10 -75 13 -401 19 -154 3 -286 1 -292 -4z m-422 -1831 c144 -49 242 -128 298 -239 81 -160 81 -314 3 -467 -84 -161 -255 -265 -437 -265 -272 0 -495 224 -495 498 0 126 58 261 152 354 58 58 79 70 193 114 79 30 207 33 286 5z m2562 4 c139 -36 258 -127 316 -243 81 -160 81 -314 3 -467 -84 -161 -255 -265 -437 -265 -272 0 -495 224 -495 498 0 74 21 155 61 234 96 191 340 298 552 243z m-3900 -271 l37 -7 0 -863 c0 -475 -3 -864 -7 -864 -5 0 -63 19 -130 42 l-122 43 -3 60 -3 60 -52 3 -52 3 -3 82 -3 82 -87 3 -88 3 0 679 0 680 238 0 c130 0 254 -3 275 -6z m591 -46 c-23 -86 -18 -236 11 -358 14 -57 37 -124 50 -147 61 -103 215 -221 352 -268 150 -51 344 -43 477 20 182 86 332 276 372 471 18 86 15 255 -5 307 l-11 27 656 0 655 0 -8 -52 c-4 -29 -8 -107 -8 -173 0 -191 38 -304 140 -414 73 -78 177 -146 284 -185 80 -29 95 -31 221 -31 215 1 321 43 460 184 99 100 159 207 185 329 22 108 17 190 -21 320 -6 22 -6 22 119 22 l125 0 21 -49 c11 -27 25 -80 31 -118 12 -82 12 -398 1 -653 -8 -181 -9 -188 -44 -273 -61 -150 -195 -354 -330 -502 -49 -54 -71 -68 -218 -140 -90 -44 -351 -172 -579 -286 -461 -228 -413 -212 -720 -251 -145 -18 -1466 -18 -1540 1 -174 43 -515 185 -924 386 l-176 87 0 899 0 899 219 0 219 0 -14 -52z"/>
 <path d="M4724 5453 c-12 -2 -29 -12 -39 -23 -24 -26 -245 -511 -245 -537 0 -53 43 -78 349 -198 338 -133 368 -142 430 -125 82 22 115 67 291 398 89 166 164 317 167 335 3 23 0 37 -11 46 -10 8 -171 31 -448 62 -429 48 -453 50 -494 42z"/>
 <path d="M7380 5408 c-339 -39 -345 -40 -373 -67 -16 -15 -32 -45 -37 -67 -13 -54 -12 -504 1 -584 6 -40 18 -73 29 -85 36 -36 104 -11 449 169 381 198 453 238 485 277 51 61 57 150 17 262 -38 109 -78 139 -181 136 -25 -1 -200 -19 -390 -41z"/>
 <path d="M5953 5332 c-36 -5 -86 -73 -171 -235 -222 -420 -244 -479 -203 -544 31 -49 72 -53 499 -53 422 1 505 9 573 56 94 65 111 142 107 485 -3 232 -5 260 -21 276 -16 17 -46 18 -390 18 -205 0 -382 -1 -394 -3z"/>
 </g>
<g id="layer12" fill="#d92525" stroke="none">
 <path d="M5835 12795 c-463 -86 -900 -361 -1388 -875 -460 -484 -947 -1232 -1320 -2025 -122 -259 -140 -299 -218 -484 -617 -1448 -983 -3048 -920 -4016 43 -658 232 -1286 567 -1883 72 -128 272 -438 363 -562 132 -180 272 -383 294 -426 14 -26 14 -34 2 -57 -11 -22 -11 -28 1 -38 8 -6 14 -9 14 -6 0 2 17 -11 38 -30 112 -105 399 -309 587 -418 135 -79 409 -214 525 -260 52 -20 103 -41 112 -46 33 -17 26 8 -15 58 -23 28 -81 86 -129 127 -80 71 -109 106 -89 106 4 0 95 -29 202 -65 613 -204 988 -270 1529 -268 369 0 646 34 980 118 1330 335 2436 1370 2866 2683 125 379 182 728 191 1167 12 539 -60 1119 -244 1968 -24 115 -42 211 -39 214 7 8 51 -91 61 -137 6 -30 54 -151 100 -255 13 -28 35 -100 41 -135 2 -8 10 -20 19 -26 9 -7 13 -18 9 -28 -4 -10 0 -18 10 -22 8 -3 18 -22 22 -42 8 -43 46 -123 67 -140 8 -7 13 -21 10 -31 -6 -22 14 -64 26 -57 8 5 7 21 -4 81 -3 17 -8 46 -11 65 -3 19 -28 135 -55 258 -245 1109 -704 2344 -1222 3295 -61 111 -74 127 -106 130 -25 2 -162 160 -321 371 -14 18 -65 82 -115 142 -472 572 -765 864 -1115 1115 -153 111 -250 169 -407 246 -331 164 -670 234 -918 188z m575 -3800 c583 -80 1086 -277 1553 -608 525 -374 951 -932 1181 -1549 155 -416 232 -915 207 -1333 -9 -149 -11 -160 -33 -177 -22 -16 -23 -16 -28 3 -12 47 -25 17 -37 -79 -103 -883 -581 -1703 -1305 -2238 -935 -692 -2180 -835 -3255 -374 -149 64 -317 153 -455 241 -59 37 -110 64 -113 58 -3 -5 34 -34 82 -66 75 -48 130 -79 326 -187 15 -8 26 -19 25 -23 -2 -4 1 -8 7 -8 5 0 9 4 7 8 -1 5 2 6 8 2 8 -5 8 -11 0 -20 -13 -16 -4 -39 11 -30 5 4 9 1 9 -4 0 -6 -2 -11 -6 -11 -15 0 -304 156 -399 216 -412 259 -770 614 -1038 1032 -94 146 -232 416 -292 572 -220 566 -287 1172 -194 1750 21 133 63 329 84 395 66 207 91 277 135 385 28 69 82 184 119 255 446 860 1232 1480 2176 1714 162 40 357 74 520 91 133 13 569 4 705 -15z"/>
 <path d="M8927 7154 c-9 -10 32 -86 43 -79 6 4 1 23 -10 46 -22 41 -23 43 -33 33z"/>
 <path d="M9086 6781 c-4 -5 -2 -12 4 -16 6 -4 8 -10 5 -15 -3 -5 -1 -11 4 -14 5 -4 12 -2 15 3 4 5 2 12 -4 16 -6 4 -8 10 -5 15 3 5 1 11 -4 14 -5 4 -12 2 -15 -3z"/>
 <path d="M9117 6694 c-4 -4 -3 -12 1 -18 4 -6 7 -14 8 -18 1 -5 3 -10 4 -13 1 -3 4 -9 5 -15 1 -5 4 -12 5 -15 1 -3 3 -9 4 -15 0 -5 4 -10 9 -10 7 0 8 4 6 15 -1 3 -3 10 -4 15 -1 6 -4 12 -5 15 -1 3 -4 10 -5 15 -1 6 -4 12 -5 15 -1 3 -3 9 -4 14 -2 14 -12 22 -19 15z"/>
 <path d="M9156 6561 c-4 -5 -2 -12 4 -16 6 -4 8 -10 5 -15 -3 -5 -1 -11 4 -14 5 -4 12 -2 15 3 4 5 2 12 -4 16 -6 4 -8 10 -5 15 3 5 1 11 -4 14 -5 4 -12 2 -15 -3z"/>
 <path d="M9205 6370 c-4 -6 -3 -16 3 -22 6 -6 12 -6 17 2 4 6 3 16 -3 22 -6 6 -12 6 -17 -2z"/>
 <path d="M7449 6344 c-13 -7 -30 -9 -39 -5 -16 8 -27 8 -50 -2 -8 -4 -42 -8 -75 -9 l-60 -3 3 -30 c5 -50 58 -147 111 -202 69 -72 121 -107 204 -139 63 -24 85 -27 177 -27 88 1 115 5 168 26 83 34 147 84 131 103 -6 8 -8 14 -4 14 5 0 0 9 -10 20 -10 11 -24 20 -30 20 -7 0 -25 18 -41 41 -58 84 -169 161 -273 189 -63 17 -184 19 -212 4z"/>
 <path d="M6220 6341 c-8 -5 -69 -11 -135 -15 -155 -9 -297 -26 -311 -37 -6 -5 -21 -36 -33 -68 -26 -72 -105 -192 -163 -248 -60 -58 -149 -109 -241 -138 -215 -68 -494 1 -651 162 -73 74 -130 137 -128 141 1 1 -1 1 -5 0 -5 -2 -7 -7 -5 -12 2 -5 -4 -4 -12 4 -11 9 -20 9 -28 2 -7 -6 -40 -12 -73 -15 -33 -3 -73 -11 -90 -18 -16 -7 -39 -14 -50 -16 -10 -2 -30 -13 -42 -25 -13 -12 -31 -23 -39 -24 -26 -4 -72 -53 -105 -112 l-30 -53 2 -157 2 -157 35 -53 c36 -55 142 -177 174 -200 10 -7 16 -17 13 -22 -3 -5 7 -18 22 -29 16 -11 37 -29 48 -39 17 -16 112 -82 153 -106 11 -7 80 122 135 256 25 61 50 78 110 78 63 0 845 -86 870 -95 37 -15 19 -63 -124 -326 -77 -143 -138 -266 -135 -274 3 -8 13 -13 23 -13 10 1 36 -2 58 -7 22 -4 47 -7 57 -6 9 1 19 -2 22 -8 8 -12 41 -3 59 17 8 10 63 112 122 227 144 281 181 344 211 356 14 5 188 9 399 9 326 0 376 -2 389 -16 14 -13 16 -53 16 -280 0 -292 -2 -286 63 -265 32 11 48 15 104 27 12 2 34 9 48 14 l25 10 0 230 c0 269 5 292 67 309 48 13 670 81 741 81 29 0 62 -5 73 -11 16 -8 25 -7 38 5 10 9 20 13 24 10 3 -3 10 3 16 14 6 11 8 22 5 24 -2 3 2 11 10 17 8 7 12 19 9 27 -3 8 1 14 11 14 25 0 84 132 92 205 2 17 6 55 10 86 3 35 2 59 -5 63 -5 4 -38 -5 -72 -19 -215 -87 -416 -80 -609 21 -160 84 -254 201 -297 371 -13 52 -21 66 -41 74 -16 6 -29 6 -38 -2 -11 -9 -18 -9 -28 0 -10 8 -16 9 -21 1 -3 -6 -11 -8 -17 -4 -5 3 -35 7 -66 8 -31 2 -143 6 -248 11 -141 6 -193 5 -198 -3 -5 -8 -14 -9 -24 -4 -20 10 -139 9 -149 -1 -3 -4 -11 -3 -17 2 -6 5 -18 6 -26 2z"/>
 <path d="M9215 6320 c-4 -6 -3 -16 3 -22 6 -6 12 -6 17 2 4 6 3 16 -3 22 -6 6 -12 6 -17 -2z"/>
 <path d="M5434 6268 c-3 -4 -96 -5 -208 -1 -112 3 -212 3 -222 -2 -11 -4 -26 -9 -34 -10 -95 -13 -121 -19 -130 -29 -6 -8 -26 -12 -47 -10 -24 2 -44 -3 -55 -13 -9 -8 -21 -12 -27 -9 -19 12 -20 -12 -1 -29 11 -10 20 -24 20 -30 0 -16 68 -86 120 -124 23 -16 73 -42 113 -57 60 -23 86 -27 172 -27 156 0 262 47 375 165 55 57 104 142 96 164 -3 8 -9 14 -13 13 -4 -1 -10 0 -13 1 -13 6 -142 4 -146 -2z"/>
 <path d="M9225 6270 c-4 -6 -3 -16 3 -22 6 -6 12 -6 17 2 4 6 3 16 -3 22 -6 6 -12 6 -17 -2z"/>
 <path d="M9235 6210 c-4 -6 -3 -16 3 -22 6 -6 12 -6 17 2 4 6 3 16 -3 22 -6 6 -12 6 -17 -2z"/>
 <path d="M9245 6150 c-4 -6 -3 -16 3 -22 6 -6 12 -6 17 2 4 6 3 16 -3 22 -6 6 -12 6 -17 -2z"/>
 <path d="M9254 6076 c-4 -10 -2 -22 4 -28 8 -8 13 -7 18 6 4 10 2 22 -4 28 -8 8 -13 7 -18 -6z"/>
 <path d="M9264 5996 c-8 -21 3 -49 16 -41 5 3 10 15 10 25 0 25 -18 36 -26 16z"/>
 <path d="M9275 5888 c-9 -23 -2 -83 10 -83 14 0 19 75 6 88 -7 7 -12 5 -16 -5z"/>
 <path d="M9275 5498 c-9 -24 -1 -103 10 -103 14 0 19 95 6 108 -7 7 -12 5 -16 -5z"/>
 <path d="M2705 5360 c-4 -6 -3 -16 3 -22 6 -6 12 -6 17 2 4 6 3 16 -3 22 -6 6 -12 6 -17 -2z"/>
 <path d="M2977 4323 c-4 -6 0 -18 7 -28 8 -11 16 -14 19 -8 4 6 0 18 -7 28 -8 11 -16 14 -19 8z"/>
 <path d="M3097 4084 c-9 -10 22 -66 33 -59 6 4 4 18 -5 36 -17 31 -18 32 -28 23z"/>
 <path d="M3137 4013 c-4 -6 0 -18 7 -28 8 -11 16 -14 19 -8 4 6 0 18 -7 28 -8 11 -16 14 -19 8z"/>
 <path d="M3197 3913 c-4 -6 0 -18 7 -28 8 -11 16 -14 19 -8 4 6 0 18 -7 28 -8 11 -16 14 -19 8z"/>
 <path d="M3286 3772 c-3 -6 1 -15 8 -21 8 -7 17 -8 20 -3 3 6 -1 15 -8 21 -8 7 -17 8 -20 3z"/>
 <path d="M3406 3612 c-3 -6 1 -15 8 -21 8 -7 17 -8 20 -3 3 6 -1 15 -8 21 -8 7 -17 8 -20 3z"/>
 <path d="M3446 3562 c-3 -5 3 -17 13 -26 11 -10 22 -13 25 -8 3 5 -3 17 -13 26 -11 10 -22 13 -25 8z"/>
 <path d="M3506 3492 c-3 -5 3 -17 13 -26 11 -10 22 -13 25 -8 3 5 -3 17 -13 26 -11 10 -22 13 -25 8z"/>
 <path d="M3597 3393 c-3 -5 25 -40 62 -77 38 -38 71 -64 74 -59 3 5 -25 40 -62 77 -38 38 -71 64 -74 59z"/>
 <path d="M3786 3212 c-3 -5 8 -21 23 -36 16 -15 31 -23 35 -18 3 5 -8 21 -23 36 -16 15 -31 23 -35 18z"/>
 <path d="M3866 3142 c-3 -5 5 -19 18 -31 13 -13 26 -18 30 -13 3 5 -5 19 -18 31 -13 13 -26 18 -30 13z"/>
 <path d="M3926 3092 c-3 -5 3 -17 13 -26 11 -10 22 -13 25 -8 3 5 -3 17 -13 26 -11 10 -22 13 -25 8z"/>
 <path d="M3976 3052 c-3 -6 1 -15 8 -21 8 -7 17 -8 20 -3 3 6 -1 15 -8 21 -8 7 -17 8 -20 3z"/>
 <path d="M4016 3022 c-3 -6 1 -15 8 -21 8 -7 17 -8 20 -3 3 6 -1 15 -8 21 -8 7 -17 8 -20 3z"/>
 <path d="M4056 2991 c-4 -5 7 -19 23 -30 16 -12 32 -17 35 -12 4 5 -7 19 -23 30 -16 12 -32 17 -35 12z"/>
 <path d="M8687 10813 c-4 -6 0 -18 7 -28 8 -11 16 -14 19 -8 4 6 0 18 -7 28 -8 11 -16 14 -19 8z"/>
 </g>

</svg>